<svg width="25" height="24" viewBox="0 0 25 24" fill="none" xmlns="http://www.w3.org/2000/svg">
<path d="M6.898 17.2922C7.748 16.6616 8.674 16.1635 9.676 15.798C10.6778 15.4327 11.7442 15.25 12.875 15.25C14.0058 15.25 15.0722 15.4327 16.074 15.798C17.076 16.1635 18.002 16.6616 18.852 17.2922C19.4737 16.6089 19.9662 15.8179 20.3297 14.9192C20.6932 14.0206 20.875 13.0475 20.875 12C20.875 9.78333 20.0958 7.89583 18.5375 6.3375C16.9792 4.77917 15.0917 4 12.875 4C10.6583 4 8.77083 4.77917 7.2125 6.3375C5.65417 7.89583 4.875 9.78333 4.875 12C4.875 13.0475 5.05675 14.0206 5.42025 14.9192C5.78375 15.8179 6.27633 16.6089 6.898 17.2922ZM12.8752 12.75C11.9622 12.75 11.1923 12.4367 10.5655 11.81C9.9385 11.1832 9.625 10.4132 9.625 9.50025C9.625 8.58725 9.93833 7.81733 10.565 7.1905C11.1918 6.5635 11.9617 6.25 12.8747 6.25C13.7877 6.25 14.5577 6.56333 15.1845 7.19C15.8115 7.81683 16.125 8.58675 16.125 9.49975C16.125 10.4127 15.8117 11.1827 15.185 11.8095C14.5582 12.4365 13.7882 12.75 12.8752 12.75ZM12.875 21.5C11.5558 21.5 10.3183 21.2519 9.1625 20.7557C8.00667 20.2596 7.00125 19.5839 6.14625 18.7287C5.29108 17.8737 4.61542 16.8683 4.11925 15.7125C3.62308 14.5567 3.375 13.3192 3.375 12C3.375 10.6808 3.62308 9.44333 4.11925 8.2875C4.61542 7.13167 5.29108 6.12625 6.14625 5.27125C7.00125 4.41608 8.00667 3.74042 9.1625 3.24425C10.3183 2.74808 11.5558 2.5 12.875 2.5C14.1942 2.5 15.4317 2.74808 16.5875 3.24425C17.7433 3.74042 18.7487 4.41608 19.6037 5.27125C20.4589 6.12625 21.1346 7.13167 21.6307 8.2875C22.1269 9.44333 22.375 10.6808 22.375 12C22.375 13.3192 22.1269 14.5567 21.6307 15.7125C21.1346 16.8683 20.4589 17.8737 19.6037 18.7287C18.7487 19.5839 17.7433 20.2596 16.5875 20.7557C15.4317 21.2519 14.1942 21.5 12.875 21.5ZM12.875 20C13.7775 20 14.6477 19.8548 15.4855 19.5645C16.3233 19.274 17.0672 18.8679 17.7172 18.3462C17.0672 17.8436 16.333 17.4519 15.5145 17.1712C14.6958 16.8904 13.816 16.75 12.875 16.75C11.934 16.75 11.0526 16.8887 10.2307 17.1662C9.40892 17.4439 8.67625 17.8372 8.03275 18.3462C8.68275 18.8679 9.42667 19.274 10.2645 19.5645C11.1023 19.8548 11.9725 20 12.875 20ZM12.875 11.25C13.3725 11.25 13.7885 11.0827 14.123 10.748C14.4577 10.4135 14.625 9.9975 14.625 9.5C14.625 9.0025 14.4577 8.5865 14.123 8.252C13.7885 7.91733 13.3725 7.75 12.875 7.75C12.3775 7.75 11.9615 7.91733 11.627 8.252C11.2923 8.5865 11.125 9.0025 11.125 9.5C11.125 9.9975 11.2923 10.4135 11.627 10.748C11.9615 11.0827 12.3775 11.25 12.875 11.25Z" fill="#CCCCCC"/>
</svg>
