<svg width="24" height="24" viewBox="0 0 24 24" fill="none" xmlns="http://www.w3.org/2000/svg">
<path d="M3 6C3 4.34315 4.34315 3 6 3H18C19.6569 3 21 4.34315 21 6V18C21 19.6569 19.6569 21 18 21H6C4.34315 21 3 19.6569 3 18V6Z" fill="#2F53FF"/>
<path d="M16.4733 8.80667C16.4114 8.74418 16.3376 8.69459 16.2564 8.66074C16.1752 8.62689 16.088 8.60947 16 8.60947C15.912 8.60947 15.8249 8.62689 15.7436 8.66074C15.6624 8.69459 15.5886 8.74418 15.5267 8.80667L10.56 13.78L8.47334 11.6867C8.40899 11.6245 8.33303 11.5756 8.2498 11.5428C8.16656 11.51 8.07768 11.4939 7.98822 11.4955C7.89877 11.497 7.8105 11.5162 7.72844 11.5518C7.64639 11.5875 7.57217 11.639 7.51001 11.7033C7.44785 11.7677 7.39897 11.8436 7.36617 11.9269C7.33337 12.0101 7.31728 12.099 7.31883 12.1885C7.32038 12.2779 7.33953 12.3662 7.37519 12.4482C7.41085 12.5303 7.46233 12.6045 7.52667 12.6667L10.0867 15.2267C10.1486 15.2892 10.2224 15.3387 10.3036 15.3726C10.3849 15.4064 10.472 15.4239 10.56 15.4239C10.648 15.4239 10.7352 15.4064 10.8164 15.3726C10.8976 15.3387 10.9714 15.2892 11.0333 15.2267L16.4733 9.78667C16.541 9.72424 16.595 9.64847 16.632 9.56414C16.6689 9.47981 16.688 9.38874 16.688 9.29667C16.688 9.2046 16.6689 9.11353 16.632 9.0292C16.595 8.94486 16.541 8.8691 16.4733 8.80667V8.80667Z" fill="white"/>
</svg>
