<svg width="25" height="24" viewBox="0 0 25 24" fill="none" xmlns="http://www.w3.org/2000/svg">
<path d="M7.625 17H9.625V10H7.625V17ZM11.625 17H13.625V7H11.625V17ZM15.625 17H17.625V13H15.625V17ZM5.625 21C5.075 21 4.60417 20.8042 4.2125 20.4125C3.82083 20.0208 3.625 19.55 3.625 19V5C3.625 4.45 3.82083 3.97917 4.2125 3.5875C4.60417 3.19583 5.075 3 5.625 3H19.625C20.175 3 20.6458 3.19583 21.0375 3.5875C21.4292 3.97917 21.625 4.45 21.625 5V19C21.625 19.55 21.4292 20.0208 21.0375 20.4125C20.6458 20.8042 20.175 21 19.625 21H5.625ZM5.625 19H19.625V5H5.625V19Z" fill="black"/>
</svg>
