<svg width="28" height="28" viewBox="0 0 28 28" fill="none" xmlns="http://www.w3.org/2000/svg">
<mask id="mask0_25_811" style="mask-type:alpha" maskUnits="userSpaceOnUse" x="-1" y="-1" width="29" height="29">
<rect x="-0.000244141" y="-0.000274658" width="28" height="28" fill="#D9D9D9"/>
</mask>
<g mask="url(#mask0_25_811)">
<path d="M13.2415 14.758H8.34146C8.1266 14.758 7.9465 14.6859 7.80115 14.5417C7.6558 14.3974 7.58313 14.2187 7.58313 14.0055C7.58313 13.7922 7.6558 13.6116 7.80115 13.4635C7.9465 13.3155 8.1266 13.2414 8.34146 13.2414H13.2415V8.34142C13.2415 8.12656 13.3136 7.94645 13.4578 7.80111C13.6021 7.65576 13.7808 7.58308 13.994 7.58308C14.2072 7.58308 14.3879 7.65576 14.536 7.80111C14.684 7.94645 14.7581 8.12656 14.7581 8.34142V13.2414H19.6581C19.8729 13.2414 20.053 13.3135 20.1984 13.4578C20.3437 13.602 20.4164 13.7807 20.4164 13.994C20.4164 14.2072 20.3437 14.3879 20.1984 14.5359C20.053 14.684 19.8729 14.758 19.6581 14.758H14.7581V19.658C14.7581 19.8729 14.686 20.053 14.5417 20.1983C14.3975 20.3437 14.2187 20.4164 14.0055 20.4164C13.7923 20.4164 13.6116 20.3437 13.4636 20.1983C13.3155 20.053 13.2415 19.8729 13.2415 19.658V14.758Z" fill="white"/>
</g>
</svg>
