<svg width="25" height="24" viewBox="0 0 25 24" fill="none" xmlns="http://www.w3.org/2000/svg">
<path d="M4.125 21C3.575 21 3.10417 20.8042 2.7125 20.4125C2.32083 20.0208 2.125 19.55 2.125 19V5C2.125 4.45 2.32083 3.97917 2.7125 3.5875C3.10417 3.19583 3.575 3 4.125 3H20.125C20.675 3 21.1458 3.19583 21.5375 3.5875C21.9292 3.97917 22.125 4.45 22.125 5V19C22.125 19.55 21.9292 20.0208 21.5375 20.4125C21.1458 20.8042 20.675 21 20.125 21H4.125ZM4.125 19H20.125V5H4.125V19ZM6.125 17H18.125V15H6.125V17ZM6.125 13H10.125V7H6.125V13ZM12.125 13H18.125V11H12.125V13ZM12.125 9H18.125V7H12.125V9Z" fill="black"/>
</svg>
