<svg width="16" height="16" viewBox="0 0 16 16" fill="none" xmlns="http://www.w3.org/2000/svg">
<path fill-rule="evenodd" clip-rule="evenodd" d="M10.4778 7.05239C10.665 7.23989 10.7702 7.49405 10.7702 7.75906C10.7702 8.02406 10.665 8.27822 10.4778 8.46572L6.70709 12.2377C6.51949 12.4252 6.26509 12.5305 5.99985 12.5305C5.73461 12.5304 5.48026 12.425 5.29275 12.2374C5.10524 12.0498 4.99994 11.7954 5 11.5302C5.00006 11.2649 5.10549 11.0106 5.29308 10.8231L8.35708 7.75906L5.29308 4.69506C5.11084 4.50654 5.00992 4.25398 5.01207 3.99179C5.01423 3.72959 5.11928 3.47872 5.3046 3.29323C5.48992 3.10773 5.74069 3.00244 6.00288 3.00004C6.26508 2.99764 6.51773 3.09832 6.70642 3.28039L10.4784 7.05172L10.4778 7.05239Z" fill="black"/>
</svg>
