<svg width="25" height="24" viewBox="0 0 25 24" fill="none" xmlns="http://www.w3.org/2000/svg">
<path d="M14.375 15C14.6583 15 14.9042 14.8958 15.1125 14.6875C15.3208 14.4792 15.425 14.2333 15.425 13.95C15.425 13.6667 15.3208 13.4208 15.1125 13.2125C14.9042 13.0042 14.6583 12.9 14.375 12.9C14.0917 12.9 13.8458 13.0042 13.6375 13.2125C13.4292 13.4208 13.325 13.6667 13.325 13.95C13.325 14.2333 13.4292 14.4792 13.6375 14.6875C13.8458 14.8958 14.0917 15 14.375 15ZM13.625 11.8H15.125C15.125 11.3167 15.175 10.9625 15.275 10.7375C15.375 10.5125 15.6083 10.2167 15.975 9.85C16.475 9.35 16.8083 8.94583 16.975 8.6375C17.1417 8.32917 17.225 7.96667 17.225 7.55C17.225 6.8 16.9625 6.1875 16.4375 5.7125C15.9125 5.2375 15.225 5 14.375 5C13.6917 5 13.0958 5.19167 12.5875 5.575C12.0792 5.95833 11.725 6.46667 11.525 7.1L12.875 7.65C13.025 7.23333 13.2292 6.92083 13.4875 6.7125C13.7458 6.50417 14.0417 6.4 14.375 6.4C14.775 6.4 15.1 6.5125 15.35 6.7375C15.6 6.9625 15.725 7.26667 15.725 7.65C15.725 7.88333 15.6583 8.10417 15.525 8.3125C15.3917 8.52083 15.1583 8.78333 14.825 9.1C14.275 9.58333 13.9375 9.9625 13.8125 10.2375C13.6875 10.5125 13.625 11.0333 13.625 11.8ZM8.375 18C7.825 18 7.35417 17.8042 6.9625 17.4125C6.57083 17.0208 6.375 16.55 6.375 16V4C6.375 3.45 6.57083 2.97917 6.9625 2.5875C7.35417 2.19583 7.825 2 8.375 2H20.375C20.925 2 21.3958 2.19583 21.7875 2.5875C22.1792 2.97917 22.375 3.45 22.375 4V16C22.375 16.55 22.1792 17.0208 21.7875 17.4125C21.3958 17.8042 20.925 18 20.375 18H8.375ZM8.375 16H20.375V4H8.375V16ZM4.375 22C3.825 22 3.35417 21.8042 2.9625 21.4125C2.57083 21.0208 2.375 20.55 2.375 20V6H4.375V20H18.375V22H4.375Z" fill="#CCCCCC"/>
</svg>
