<svg width="12" height="28" viewBox="0 0 12 28" fill="none" xmlns="http://www.w3.org/2000/svg">
<path d="M3.70134 13.9928L10.3501 20.642C10.4968 20.7884 10.5751 20.9681 10.585 21.181C10.5952 21.3937 10.5169 21.5833 10.3501 21.7498C10.1836 21.9166 9.99897 22 9.79619 22C9.5934 22 9.40876 21.9166 9.24225 21.7498L2.37033 14.8783C2.23384 14.7416 2.13793 14.6019 2.0826 14.4594C2.02753 14.3169 2 14.1614 2 13.9928C2 13.8242 2.02753 13.6687 2.0826 13.5262C2.13793 13.3837 2.23384 13.244 2.37033 13.1073L9.24225 6.23576C9.38866 6.08909 9.56835 6.0108 9.78131 6.00088C9.99401 5.9907 10.1836 6.06899 10.3501 6.23576C10.5169 6.40227 10.6003 6.58691 10.6003 6.7897C10.6003 6.99248 10.5169 7.17713 10.3501 7.34363L3.70134 13.9928Z" fill="#7F7F7F"/>
</svg>
